/* XPM */
static char *daf8f415be034d0e8bccfa9cf4964979sus5mCmlt7XvcT0u[] = {
/* columns rows colors chars-per-pixel */
"32 32 14 1 ",
"  c None",
". c #EAE178",
"X c #5C4E92",
"o c #766DAA",
"O c #E8B3AC",
"+ c #E8B5AC",
"@ c #DDD5DE",
"# c #F3D8C5",
"$ c #F3F2C0",
"% c #F3F3C0",
"& c #F4F1C1",
"* c #F4F3C0",
"= c #F4F3C1",
"- c #F5F4C1",
/* pixels */
"              XXXXXX            ",
"              XXXXXX            ",
"            XX$$$$$$XX          ",
"            XX$$$$$$XX          ",
"          XXXX$$++++$$XX        ",
"          XXXX$$+OO+$$XX        ",
"        XX$$$$$$+OO+$$XX        ",
"        XX$$$$$$++++$$XX        ",
"        XX$$-*$$$$$$$$XX        ",
"        XX$$*$$$$$$$$$XX        ",
"        XX$$*$$$$%$-$$XX        ",
"        XX$$-*$$$$$*$$XX        ",
"      XXXX$$*$$$$$$-$$XXXX      ",
"      XXXX$$$$$$$$%%$$XXXX      ",
"      XX$$$$XX$$$$%$$$XX        ",
"      XX$**$XX$$-$$$$$XX        ",
"      XX***$$$$$$$$$$$XXXX      ",
"      XX$*****$$$$$-*$XXXX      ",
"      XX$$*$*$####$$*$XX        ",
"      XX$$$$$$####$$**XX        ",
"        XXooooooooooXX          ",
"        XXooooooooooXX          ",
"        ..oooooooo$$@@XX        ",
"        ..oooooooo$$@@XX        ",
"        ..XX$$$$$$$$@@XX        ",
"        ..XX$$$$$*$$@@XX        ",
"          XX$$$$**$$XX          ",
"          XX$$$$$$$$XX          ",
"            XX@@@@XX            ",
"            XX@@@@XX            ",
"              XXXX              ",
"              XXXX              "
};
