/* XPM */
static char *_2333891efd94df688cb144fc6098a9dUUQ8VA9bzEk94ydF[] = {
/* columns rows colors chars-per-pixel */
"32 32 17 1 ",
"  c None",
". c #4C468B",
"X c #555793",
"o c #5F699C",
"O c #7180B1",
"+ c #7787B9",
"@ c #7889BA",
"# c #788ABB",
"$ c #8599C7",
"% c #DCE0D2",
"& c #DDE1D2",
"* c #DDE1D3",
"= c #DEE2D3",
"- c #F3F4E7",
"; c #F4F5E7",
": c #F4F5E8",
"> c #F5F6E8",
/* pixels */
"                                ",
"                                ",
"          ------------          ",
"          ------------          ",
"        --XXXXXXXXXX..--        ",
"        --XXXXXXXXXX..--        ",
"      --XX+@@@@@@+OOOO..--      ",
"      --XX++++++++OOOO..--      ",
"        --............--        ",
"        --............--        ",
"      --$$----------%%$$--      ",
"      --$$--;-------%%$$--      ",
"      --$$-::::::::-%%$$--      ",
"      --$$--;;------%%$$--      ",
"      --$$--;-------%%$$--      ",
"      --$$--;-------%%$$--      ",
"    --$$------------%%%%OO--    ",
"    --$$--;---------%=%%OO--    ",
"    --$$-;;---------%%%%OO;-    ",
"    --$$--;---------%=%%OO;;    ",
"    --OO--;---------%%%%oo--    ",
"    --OO--;---------%%%%oo--    ",
"    --OO--;---------%%%%oo--    ",
"    --OO--;---------%%%%oo--    ",
"    --OO--;-----;;%%=%%%oo--    ",
"    --OO-:------;:%%%%%%oo--    ",
"    --oo--:-%%%%%%%%%%%%oo--    ",
"    --oo----%%%%%%%%%%%%oo--    ",
"      --oooooooooooooooo--      ",
"      --oooooooooooooooo--      ",
"        ----------------        ",
"        ----------------        "
};
