/* XPM */
static char *_297ab31e4cb4043e3f3ae1f2f123092U3M1aaFJ8W4lk0zt[] = {
/* columns rows colors chars-per-pixel */
"32 32 14 1 ",
"  c None",
". c #EAE178",
"X c #5C4E92",
"o c #766DAA",
"O c #E8B3AC",
"+ c #E8B5AC",
"@ c #DDD5DE",
"# c #F3D8C5",
"$ c #F3F2C0",
"% c #F3F3C0",
"& c #F4F1C1",
"* c #F4F3C0",
"= c #F4F3C1",
"- c #F5F4C1",
/* pixels */
"            XXXXXX              ",
"            XXXXXX              ",
"          XX$$$$$$XX            ",
"          XX$$$$$$XX            ",
"        XX$$++++$$XXXX          ",
"        XX$$+OO+$$XXXX          ",
"        XX$$+OO+$$$$$$XX        ",
"        XX$$++++$$$$$$XX        ",
"        XX$$$$$$$$*-$$XX        ",
"        XX$$-$$$$$$*$$XX        ",
"        XX$$$%$$$$$*$$XX        ",
"        XX$$-$$$$$*-$$XX        ",
"      XXXX$$*$$$$$$*$$XXXX      ",
"      XXXX$$*$$$$$$$$$XXXX      ",
"        XX$$*$$*$$XX$$$$XX      ",
"        XX$$*$$*$$XX$**$XX      ",
"      XXXX$$*$$$$$$$***$XX      ",
"      XXXX$*-$$$$$*****$XX      ",
"        XX$$$$####$*$*$$XX      ",
"        XX$$$$####$$$$$$XX      ",
"          XXooooooooooXX        ",
"          XXooooooooooXX        ",
"        XX@@$$oooooooo..        ",
"        XX@@$$oooooooo..        ",
"        XX@@$$$$$$$$XX..        ",
"        XX@@$$*$$$$$XX..        ",
"          XX$$**$$$$XX          ",
"          XX$$$$$$$$XX          ",
"            XX@@@@XX            ",
"            XX@@@@XX            ",
"              XXXX              ",
"              XXXX              "
};
