/* XPM */
static char *_11aba5e218f48459035b7d3cafc1e84DF3U2o6S24TQU73R[] = {
/* columns rows colors chars-per-pixel */
"32 32 19 1 ",
"  c None",
". c #90625D",
"X c #A97759",
"o c #A97859",
"O c #AA7859",
"+ c #AA7959",
"@ c #B09643",
"# c #BFA954",
"$ c #C3986C",
"% c #C3996C",
"& c #C4996C",
"* c #C49A6C",
"= c #D4C169",
"- c #EAE178",
"; c #EBE278",
": c #DCB98A",
"> c #DDBA8A",
", c #DDBA8B",
"< c #F4F4A0",
/* pixels */
"                                ",
"                                ",
"    ....                ....    ",
"    ....                ....    ",
"  ..====................====..  ",
"  ..====................====..  ",
"..------**::::::>:::::**------..",
"..------**::::::>>::::**------..",
"..----******:>>>>,>:******--;-..",
"..----******:::::::>***$**----..",
"..----**$*****************----..",
"..----**$*$**$*$*$$*$*$$**----..",
"..----********************----..",
"..----********************----..",
"..<<------------------------<<..",
"..<<------------------------<<..",
"..@@<<<<<<<<<<<<<<<<<<<<<<<<@@..",
"..@@<<<<<<<<<<<<<<<<<<<<<<<<@@..",
"..##@@........--==........@@##..",
"..##@@........--==........@@##..",
"..####++++++++====++++++++####..",
"..####++X+++++====++O+++++####..",
"..==##++++++++++OOOO+O++++##==..",
"..==##+XX+X+++++OOOO++++++##==..",
"..====++++++++X++X++++++++====..",
"..====++++++++++++++++++++====..",
"  ..========================..  ",
"  ..========================..  ",
"    ........................    ",
"    ........................    ",
"                                ",
"                                "
};
