/* XPM */
static char *_23d34853a5c496690d795f44684896et1gcaj6KxKPkz5PQ[] = {
/* columns rows colors chars-per-pixel */
"32 32 13 1 ",
"  c None",
". c #6B4A5B",
"X c #6B4B5B",
"o c #90625D",
"O c #AA7959",
"+ c #B09643",
"@ c #BFA954",
"# c #D3C068",
"$ c #D4C169",
"% c #D4C269",
"& c #D5C269",
"* c #EAE178",
"= c #F4F4A0",
/* pixels */
"                                ",
"                                ",
"    oooo                oooo    ",
"    oooo                oooo    ",
"  oo$$$$oooooooooooooooo$$$$oo  ",
"  oo$$$$oooooooooooooooo$$$$oo  ",
"oo==**************************oo",
"oo==**************************oo",
"oo++====******==$$**********++oo",
"oo++====******==$$**********++oo",
"oo++XXXXXXXXXX$$$$XXXXXXXXXX++oo",
"oo++XXXXXXXXXX$$$$XXXXXXXXXX++oo",
"oo++XXXXXXXXXXXXXXXXXXXXXXXX++oo",
"oo++XXXXXXXXXXXXXXXXXXXXXXXX++oo",
"oo++XXXXXXXXXXXXXXXXXXXXXXXX++oo",
"oo++XXXXXXXXXXXXXXXXXXXXXXXX++oo",
"oo++++XXXXXXXXXXXXXXXXXXXX++++oo",
"oo++++XXXXXXXXXXXXXXXXXXXX++++oo",
"oo@@++++++++++++++++++++++++@@oo",
"oo@@++++++++++++++++++++++++@@oo",
"oo$$@@oooooooooooooooooooo@@$$oo",
"oo$$@@oooooooooooooooooooo@@$$oo",
"oo$#$$OOOOOOOOOOOOOOOOOOOO$$#$oo",
"oo$$$$OOOOOOOOOOOOOOOOOOOO$$$$oo",
"oo$$$$OOOOOOOOOOOOOOOOOOOO$$$$oo",
"oo$$$$OOOOOOOOOOOOOOOOOOOO$$$$oo",
"oo$$$$OOOOOOOOOOOOOOOOOOOO$$$$oo",
"oo$$$$OOOOOOOOOOOOOOOOOOOO$$$$oo",
"  oo$$$$$$$$$$$$$$$$$$$$$$$$oo  ",
"  oo$$$$$$$$$$$$$$$$$$$$$$$$oo  ",
"    oooooooooooooooooooooooo    ",
"    oooooooooooooooooooooooo    "
};
