/* XPM */
static char *_822088912b74cc7b07a1bb7d6e5beab1Ybo4ZWTtIHpTyLe[] = {
/* columns rows colors chars-per-pixel */
"32 32 2 1 ",
"  c #A4C263",
". c #C0D470",
/* pixels */
"................................",
"................................",
"................................",
"................................",
"................................",
"................................",
"........................  ......",
"........................  ......",
"......................  ........",
"......................  ........",
"......................  ........",
"......................  ........",
"........  ......................",
"........  ......................",
"..........  ....................",
"..........  ....................",
"..........  ........  ..........",
"..........  ........  ..........",
"..................  ............",
"..................  ............",
"..................  ............",
"..................  ............",
"................................",
"................................",
"................................",
"................................",
"................................",
"................................",
"................................",
"................................",
"................................",
"................................"
};
