/* XPM */
static char *_65665e8760b4c5f92c80cc88be46215z4XtzGmhMCP4FOwf[] = {
/* columns rows colors chars-per-pixel */
"32 32 21 1 ",
"  c None",
". c #EAE178",
"X c #5C4E92",
"o c #766DAA",
"O c #E8B3AC",
"+ c #E8B5AC",
"@ c #E9B5AC",
"# c #DDD5DE",
"$ c #DED6DF",
"% c #F3D8C5",
"& c #EFEDCA",
"* c #F3EEC1",
"= c #F4EEC1",
"- c #F4ECC2",
"; c #F5EDC2",
": c #F3F2C0",
"> c #F3F3C0",
", c #F4F1C1",
"< c #F4F3C0",
"1 c #F4F4C1",
"2 c #F5F4C1",
/* pixels */
"      XXXXXX        XXXXXX      ",
"      XXXXXX        XXXXXX      ",
"    XX::::::XX    XX:::<::XX    ",
"    XX::::::XX    XX:::<::XX    ",
"    XX++++<:XXXXXXXX::++++XX    ",
"    XX+O++<:XXXXXXXX::++O+XX    ",
"    XX+O++:<########::++O+XX    ",
"    XX++++:<########::++++XX    ",
"    XX::::::####$###::::::XX    ",
"    XX::1:::########:::<::XX    ",
"    XX::1:::########::<1::XX    ",
"    XX::1<::########::<1::XX    ",
"  XXXX::<<::::::<::::::1::XXXX  ",
"  XXXX::::::::::::::::::::XXXX  ",
"    XX::XX::<::::::<::XX::XX    ",
"    XX::XX::<::::::<::XX::XX    ",
"  XXXX:::::::::::::::::<::XXXX  ",
"  XXXX:---<<<<<1<<<<<<---:XXXX  ",
"    XX%%%%*::::::::::*%%%%XX    ",
"    XX%%%%::::::::::::%%%%XX    ",
"      XXXXooooooooooooXXXX      ",
"      XXXXooooooooooooXXXX      ",
"    XX##::oooo..::oooo::##XX    ",
"    XX##&<oooo..::oooo:&##XX    ",
"    XX##&:::::....:::::&##XX    ",
"    XX##::::>:....::::::##XX    ",
"      XXXX::::::::::::XXXX      ",
"      XXXX::::::::::::XXXX      ",
"        XX####XXXX####XX        ",
"        XX####XXXX####XX        ",
"          XXXX    XXXX          ",
"          XXXX    XXXX          "
};
