/* XPM */
static char *_577710b77f145c5878218b0912b3a6fnCk7oKQXWPG1rcus[] = {
/* columns rows colors chars-per-pixel */
"32 32 13 1 ",
"  c #545959",
". c #6B7470",
"X c #A4C263",
"o c #B7C973",
"O c #BED170",
"+ c #BFD370",
"@ c #C0D470",
"# c #808A82",
"$ c #818B83",
"% c #838D85",
"& c #9CA799",
"* c #9DA89A",
"= c #C1C8B9",
/* pixels */
"@@@@@@@@@@@@@@@@@@@@@@@@@@@@@@@@",
"@@@@@@@@@@@@@@@@@@@@@@@@@@@@@@@@",
"@@@@@@@@@@@@@@@@@@@@@@@@@@@@@@@@",
"@@@@@@@@@@@@@@@@@@@@@@@@@@@@@@@@",
"@@@@@@@@@@@@@@@@@@@@@@@@@@@@@@@@",
"@@@@@@@@@@@@@@@@OO@@@@@@@@@@@@@@",
"@@@@@@@@@@@@......@@@@@@XX@@@@@@",
"@@@@@@@@@@@@......@@@@@@XX@@@@@@",
"@@@@@@@@@@..======....XX@@@@@@@@",
"@@@@@@@@@@..======....XX@@@@@@@@",
"@@@@@@@@..============....@@@@@@",
"@@@@@@@@..============....@@@@@@",
"@@@@@@@@..$$======******==..@@@@",
"@@@@@@@@..$$======******==..@@@@",
"@@@@@@..**$$$$*****&**======  @@",
"@@@@@@..**$$$$********======  @@",
"@@@@..******$$****==========  +@",
"@@@@..******$%*&**==========  @@",
"@@  **********============$$  @@",
"@@  **&*******============$$  @@",
"oo  $$****..============$$$$  @@",
"oo  $$****..============$$$$  @@",
"oooo$%$$..$$========%$$$$$$$  oo",
"oooo$$$$..$$========$$$$$$$$  oo",
"@@oooooo..$$$$$$$$$$$#$$$$$$oooo",
"@@oooooo..$$$$$$$$$$$$$$$$$$oooo",
"@@O@@@oooo$$$$$$$$$$$$$$oooooo@@",
"@@@@@Ooooo$$$$$$$$$$$$$$oooooo@@",
"@@@@@O@@oooooooooooooooooo@@@@@@",
"@@@@@@+@oooooooooooooooooo@@@@@@",
"@@@@@@@++++@@@@@@@++@@@@++@@@@@@",
"@@@@@@@@@@+@@@@@@@@@@@@@@@@@@@@@"
};
